<svg width="30" height="31" viewBox="0 0 30 31" fill="none" xmlns="http://www.w3.org/2000/svg">
<g clip-path="url(#clip0_752_9)">
<path d="M29.1421 5.09771C28.7008 4.65562 27.9847 4.65486 27.5434 5.09584L13.9793 18.6241L9.08548 13.3089C8.66261 12.8498 7.94765 12.8201 7.48787 13.2429C7.02843 13.6657 6.99902 14.3811 7.42189 14.8405L13.1128 21.021C13.3212 21.2475 13.6129 21.3791 13.9205 21.3855C13.9287 21.3858 13.9367 21.3858 13.9446 21.3858C14.2435 21.3858 14.531 21.2671 14.7428 21.0561L29.1399 6.69679C29.5823 6.25588 29.5831 5.5398 29.1421 5.09771Z" fill="#0E121D"/>
<path d="M28.8693 14.8654C28.2448 14.8654 27.7387 15.3716 27.7387 15.9961C27.7387 23.0205 22.0244 28.7348 15 28.7348C7.97602 28.7348 2.26131 23.0205 2.26131 15.9961C2.26131 8.97211 7.97602 3.2574 15 3.2574C15.6245 3.2574 16.1307 2.75127 16.1307 2.12678C16.1307 1.50223 15.6245 0.996094 15 0.996094C6.72891 0.996094 0 7.725 0 15.9961C0 24.2669 6.72891 30.9961 15 30.9961C23.2707 30.9961 30 24.2669 30 15.9961C30 15.3716 29.4939 14.8654 28.8693 14.8654Z" fill="#FE434C"/>
</g>
<defs>
<clipPath id="clip0_752_9">
<rect width="30" height="31" fill="white"/>
</clipPath>
</defs>
</svg>
